# xmcd
# Copyright (C) 1995-1998 Ti Kan
#
# Track frame offsets:
#       150
#       13296
#       27431
#       43662
#       59649
#       75374
#       91407
#       107120
#       122310
#       138724
#       154109
#       168891
#
# Disc length: 2398 seconds
#
# Revision: 0
# Processed by: cddbd v1.4PL0 Copyright (c) Steve Scherf et al.
# Submitted via: CD-Transfer v1.0
#
DISCID=98095c0c
DTITLE=George Hug - #20
DYEAR=2003
DGENRE=
TTITLE0=Bar Room
TTITLE1=Lost
TTITLE2=Health
TTITLE3=What Makes The Difference
TTITLE4=The Winter Camping
TTITLE5=Day Rate
TTITLE6=In A Dream
TTITLE7=Men's World
TTITLE8=The Happiness
TTITLE9=Mexican
TTITLE10=I Would Love You
TTITLE11=Rocking
EXTD=
EXTT0=
EXTT1=
EXTT2=
EXTT3=
EXTT4=
EXTT5=
EXTT6=
EXTT7=
EXTT8=
EXTT9=
EXTT10=
EXTT11=
PLAYORDER=
